Coordinates
version=1
nRows=14
nColumns=24
inDegrees=yes

Units are S.I. units (second, meters, Newtons, ...)
Angles are in degrees.

endheader
time	pelvis_tilt	pelvis_list	pelvis_rotation	pelvis_tx	pelvis_ty	pelvis_tz	hip_flexion_r	hip_adduction_r	hip_rotation_r	knee_angle_r	ankle_angle_r	subtalar_angle_r	mtp_angle_r	hip_flexion_l	hip_adduction_l	hip_rotation_l	knee_angle_l	ankle_angle_l	subtalar_angle_l	mtp_angle_l	lumbar_extension	lumbar_bending	lumbar_rotation
      1.09150000	     -2.39771181	      2.53714815	     -2.63097787	      0.35997573	      1.07498727	      0.32173792	     14.30170541	     -6.25625671	     -6.74008772	    -68.23429359	      0.97739580	     -6.72176135	      2.53932608	     12.08349893	      4.87178141	      1.86231654	    -18.37731315	     11.15935524	      0.63103229	     -4.12618733	    -12.25604479	     -4.48474598	     -0.92665333
      1.09566667	     -2.36104037	      2.37363535	     -2.57475744	      0.36527598	      1.07610198	      0.32148780	     14.78880287	     -6.08371769	     -6.87534521	    -67.99785942	      1.36685603	     -6.59462304	      2.51491817	     11.51561005	      4.72074245	      1.93272583	    -17.95108205	     11.19733664	      0.70267274	     -4.12927422	    -12.30340972	     -4.24656848	     -1.09773824
      1.09983333	     -2.35538920	      2.22763123	     -2.51237513	      0.37058050	      1.07710806	      0.32123187	     15.30452085	     -5.93033948	     -7.01337307	    -67.72469103	      1.77769867	     -6.39738795	      2.49691425	     10.98309842	      4.58790923	      2.01310068	    -17.52467425	     11.22802697	      0.76003312	     -4.13286585	    -12.31410601	     -4.02627796	     -1.27598058
      1.10400000	     -2.30907386	      2.06931268	     -2.44207105	      0.37586639	      1.07816081	      0.32097114	     15.75916380	     -5.76367384	     -7.16322635	    -67.38773162	      2.18585182	     -6.15987403	      2.49017954	     10.40695354	      4.44241406	      2.09404635	    -17.09603132	     11.26242620	      0.82505857	     -4.13567284	    -12.37737639	     -3.78891527	     -1.43324821
      1.10816667	     -2.29198049	      1.91519232	     -2.36412759	      0.38115219	      1.07911601	      0.32070877	     16.23724692	     -5.59934362	     -7.31869180	    -67.00859709	      2.60078330	     -5.88839234	      2.49117949	      9.86375217	      4.29952014	      2.18671953	    -16.66645771	     11.29277780	      0.88346699	     -4.13860310	    -12.40106078	     -3.55442151	     -1.60582304
      1.11233333	     -2.27731780	      1.76962581	     -2.28308019	      0.38643342	      1.08001485	      0.32044361	     16.70988412	     -5.44496867	     -7.47599164	    -66.58693665	      3.01859708	     -5.57564859	      2.50068245	      9.32598221	      4.16522863	      2.27968765	    -16.23896547	     11.31958611	      0.93575530	     -4.14127479	    -12.42337221	     -3.32757468	     -1.76894949
      1.11650000	     -2.25010483	      1.62173296	     -2.19481166	      0.39169268	      1.08088461	      0.32018168	     17.15764725	     -5.28779979	     -7.64209283	    -66.11721149	      3.44206718	     -5.23684330	      2.51681607	      8.77802499	      4.02720315	      2.37974283	    -15.81393681	     11.34747455	      0.98841872	     -4.14394777	    -12.46288914	     -3.09543591	     -1.94714805
      1.12066667	     -2.22395841	      1.46409904	     -2.10062719	      0.39693905	      1.08172508	      0.31991659	     17.59213276	     -5.11502940	     -7.80895822	    -65.59027967	      3.85188830	     -4.89067227	      2.53708788	      8.23754396	      3.87695471	      2.48018625	    -15.39820206	     11.37084666	      1.04651018	     -4.14598846	    -12.51730777	     -2.85881806	     -2.10199448
      1.12483333	     -2.17605764	      1.33307442	     -2.00652407	      0.40219371	      1.08253289	      0.31964951	     17.99784726	     -4.98118248	     -7.98616586	    -65.03581969	      4.27412925	     -4.50026629	      2.56532263	      7.66667500	      3.75663912	      2.58560008	    -14.96513975	     11.40231713	      1.08064404	     -4.14846433	    -12.56982234	     -2.64169477	     -2.29983087
      1.12900000	     -2.18067322	      1.18420699	     -1.90764057	      0.40744057	      1.08320158	      0.31940278	     18.44874205	     -4.81451815	     -8.15621072	    -64.43035796	      4.67393587	     -4.13629126	      2.59339840	      7.16824066	      3.61065586	      2.68556701	    -14.56445664	     11.42170142	      1.12811771	     -4.15039428	    -12.58054982	     -2.41782184	     -2.44770440
      1.13316667	     -2.17371641	      1.07139748	     -1.80770973	      0.41269212	      1.08381834	      0.31914150	     18.88472116	     -4.69843600	     -8.33411324	    -63.80426651	      5.08869053	     -3.72168935	      2.63165051	      6.64931515	      3.50626863	      2.79741036	    -14.14014239	     11.45891442	      1.14911220	     -4.15226824	    -12.58411927	     -2.21112409	     -2.65603170
      1.13733333	     -2.13448211	      0.94867097	     -1.70787212	      0.41791436	      1.08444605	      0.31889709	     19.27159582	     -4.56604135	     -8.50731864	    -63.12499485	      5.48422940	     -3.32500360	      2.67344958	      6.10206012	      3.38851929	      2.90544552	    -13.72742481	     11.48679850	      1.17399810	     -4.15432665	    -12.64113125	     -2.00427261	     -2.83918139
      1.14150000	     -2.15913697	      0.82527343	     -1.61163057	      0.42314160	      1.08490987	      0.31868859	     19.72025426	     -4.42069096	     -8.66673535	    -62.40570772	      5.86141814	     -2.95910853	      2.70812658	      5.63814207	      3.26266501	      2.98999490	    -13.34422517	     11.50642494	      1.21085481	     -4.15579581	    -12.62385446	     -1.81216276	     -2.96905186
      1.14566667	     -2.13143881	      0.73503302	     -1.51397128	      0.42834864	      1.08537194	      0.31845904	     20.10993038	     -4.32667297	     -8.83776954	    -61.67120727	      6.25375364	     -2.53652194	      2.75864543	      5.10663157	      3.17754306	      3.10296831	    -12.93200937	     11.55747896	      1.22425431	     -4.15675963	    -12.66385107	     -1.63214868	     -3.18349637
